session1_knee.mot
version=1
nRows=252
nColumns=2
inDegrees=yes
endheader
time	knee_angle_r
10.024866	88.164643
10.027149	88.170159
10.030246	87.572635
10.033351	87.020968
10.036420	86.511428
10.039984	85.847207
10.043393	85.287563
10.046529	84.716708
10.050724	83.555062
10.051744	83.513989
10.062517	81.297272
10.063597	81.138386
10.065677	81.040332
10.067711	79.824834
10.070866	79.174196
10.072924	79.053767
10.075338	78.416776
10.078357	77.641770
10.081497	76.957564
10.083591	76.177224
10.086749	75.358430
10.089795	74.383512
10.093137	73.397916
10.096399	72.438587
10.099669	70.592506
10.101718	70.436491
10.104808	69.443592
10.107857	68.418065
10.111337	67.697091
10.114606	67.039446
10.116923	66.472791
10.121349	65.404240
10.124393	64.902997
10.125397	64.964617
10.129569	63.910725
10.136707	62.901957
10.139006	62.440139
10.142159	61.978336
10.144327	62.055434
10.148517	61.551489
10.150835	60.995478
10.153983	59.981566
10.157233	59.959281
10.167024	57.661753
10.168031	57.519274
10.169188	57.446488
10.171129	57.347800
10.174408	56.372092
10.177547	55.777227
10.181838	55.242826
10.183867	54.719060
10.186945	54.147716
10.189257	53.596616
10.192613	53.033844
10.195839	52.368932
10.199249	52.330770
10.201833	51.200263
10.204902	50.557541
10.207269	49.907007
10.210734	49.242361
10.212761	48.538257
10.217246	47.757554
10.219769	47.069888
10.222872	46.439626
10.224795	46.450171
10.227876	45.813508
10.231049	45.273492
10.235307	44.790206
10.237600	44.332846
10.239953	43.813044
10.243032	42.905602
10.247281	42.414057
10.249303	42.400979
10.252715	41.504677
10.255712	41.448777
10.259006	40.898893
10.267439	40.171461
10.270772	38.442945
10.272700	37.892335
10.275813	37.322788
10.278913	36.806816
10.282006	36.688764
10.285352	35.824212
10.287636	35.347612
10.290735	34.907259
10.294895	34.468300
10.296863	33.998336
10.300652	33.582091
10.303811	33.203088
10.305756	32.740528
10.310018	32.357866
10.312336	31.982081
10.315912	31.591686
10.319172	31.260921
10.321217	30.891391
10.323491	30.952712
10.326586	30.623587
10.329977	29.852431
10.334049	29.529977
10.336365	29.157189
10.339871	28.843660
10.341871	28.943441
10.345695	28.213588
10.348877	28.295689
10.352455	27.628663
10.354578	27.689334
10.356570	27.719511
10.360163	26.683872
10.370634	25.508127
10.371613	25.480637
10.373780	25.456404
10.374735	25.413095
10.377962	24.783851
10.381328	24.472836
10.384470	24.158275
10.388025	23.901055
10.389996	23.664490
10.393155	23.474039
10.396671	23.291239
10.398655	23.392405
10.402996	23.301022
10.405017	23.025805
10.408390	23.194215
10.411353	22.946360
10.414437	22.886826
10.419155	22.825996
10.420198	22.918901
10.423370	22.758068
10.426950	22.315937
10.429207	22.299308
10.432563	22.045096
10.434539	21.753979
10.437694	21.422033
10.441257	21.061425
10.444781	20.670746
10.446845	20.290120
10.450967	19.926048
10.454316	19.602979
10.456614	19.235827
10.458681	18.946890
10.463497	18.657519
10.472099	18.368905
10.475141	17.755833
10.476101	17.744541
10.480558	17.588181
10.483583	17.439687
10.486802	17.155203
10.488831	17.142493
10.492368	16.988414
10.495473	16.832132
10.497870	16.654221
10.501331	16.478138
10.504508	16.292335
10.507988	16.073883
10.510060	15.867023
10.513931	15.425899
10.518444	15.175868
10.519523	15.109430
10.522602	14.649149
10.524584	14.562488
10.526648	14.273115
10.529687	14.002117
10.533998	13.726809
10.537170	13.466430
10.539100	13.210761
10.543368	12.958110
10.547461	12.532838
10.550501	12.342506
10.551620	12.337803
10.556120	12.186946
10.559546	11.913863
10.561491	11.997494
10.565894	11.958187
10.574598	12.052074
10.576795	11.804099
10.578763	11.858729
10.581816	12.001765
10.586074	11.934747
10.589547	11.984033
10.592087	12.016814
10.595762	12.066511
10.597819	12.147480
10.601087	12.114982
10.604452	12.099168
10.606440	12.126736
10.609510	12.024380
10.612564	12.019790
10.618168	11.882448
10.619182	11.850266
10.621551	11.743632
10.624747	11.556629
10.627878	11.431938
10.631296	11.302269
10.634602	11.167185
10.637869	11.035693
10.640362	10.915519
10.642417	10.861152
10.646066	10.669378
10.648250	10.615597
10.653578	10.445727
10.657489	10.271059
10.658503	10.230602
10.662070	10.132105
10.663490	10.086167
10.668291	9.940460
10.679937	9.648226
10.682372	9.585380
10.684580	9.517080
10.688812	9.459908
10.690947	9.420117
10.694482	9.378744
10.697800	9.337524
10.701149	9.297572
10.703165	9.260271
10.705322	9.216373
10.709419	9.168931
10.711439	9.119213
10.715937	9.068723
10.718653	9.018073
10.720248	8.981133
10.723328	8.932815
10.726490	8.859219
10.729571	8.801131
10.733669	8.738559
10.735717	8.680255
10.742152	8.586066
10.745600	8.499832
10.748596	8.445500
10.751249	8.399873
10.754329	8.355310
10.757760	8.311441
10.759762	8.292248
10.763074	8.242719
10.766307	8.163223
10.769460	8.122348
10.778915	8.066517
10.786501	7.947060
10.789623	7.901083
10.792843	7.857280
10.796088	7.818768
10.799590	7.779099
10.801627	7.733654
10.805038	7.682353
10.807339	7.614217
10.810819	7.527017
10.813863	7.445247
10.819120	7.361339
10.820242	7.267510
10.824271	7.167936
10.826639	7.070451
10.829727	6.951484
10.832949	6.841807
